<svg xmlns="http://www.w3.org/2000/svg" viewBox="0 0 160 160" fill="none"
  stroke="#7B2D8E" stroke-width="4.5" stroke-linecap="round" stroke-linejoin="round">
  <!-- Book 1 (back) -->
  <path d="M38,120 L38,42 Q38,36 44,36 L85,36 Q91,36 91,42 L91,120 Z"/>
  <line x1="48" y1="36" x2="48" y2="120" stroke-width="2.5" opacity="0.4"/>
  <!-- Book 2 (front, overlapping) -->
  <path d="M55,128 L55,50 Q55,44 61,44 L108,44 Q114,44 114,50 L114,128 Z"/>
  <line x1="65" y1="44" x2="65" y2="128" stroke-width="2.5" opacity="0.4"/>
  <!-- Text lines on front book -->
  <line x1="75" y1="64" x2="104" y2="64" stroke-width="3"/>
  <line x1="75" y1="75" x2="96" y2="75" stroke-width="3"/>
  <line x1="75" y1="86" x2="100" y2="86" stroke-width="2.5" opacity="0.5"/>
  <!-- Exchange arrows -->
  <path d="M120,72 L140,72" stroke-width="3.5"/>
  <polyline points="135,66 141,72 135,78" stroke-width="3.5"/>
  <path d="M140,92 L120,92" stroke-width="3.5"/>
  <polyline points="125,86 119,92 125,98" stroke-width="3.5"/>
</svg>