<svg xmlns="http://www.w3.org/2000/svg" viewBox="0 0 160 160" fill="none"
  stroke="#7B2D8E" stroke-width="4.5" stroke-linecap="round" stroke-linejoin="round">
  <!-- Axes -->
  <line x1="28" y1="132" x2="28" y2="28"/>
  <line x1="28" y1="132" x2="140" y2="132"/>
  <!-- Grid lines (subtle) -->
  <line x1="28" y1="100" x2="135" y2="100" stroke-width="1" opacity="0.15"/>
  <line x1="28" y1="68" x2="135" y2="68" stroke-width="1" opacity="0.15"/>
  <!-- Bars -->
  <rect x="40" y="92" width="18" height="40" rx="3" fill="#7B2D8E" opacity="0.2" stroke="#7B2D8E" stroke-width="2.5"/>
  <rect x="66" y="65" width="18" height="67" rx="3" fill="#7B2D8E" opacity="0.35" stroke="#7B2D8E" stroke-width="2.5"/>
  <rect x="92" y="48" width="18" height="84" rx="3" fill="#7B2D8E" opacity="0.5" stroke="#7B2D8E" stroke-width="2.5"/>
  <rect x="118" y="75" width="18" height="57" rx="3" fill="#7B2D8E" opacity="0.3" stroke="#7B2D8E" stroke-width="2.5"/>
  <!-- Trend line -->
  <polyline points="49,86 75,58 101,42 127,68" stroke-width="3.5"/>
  <!-- Data dots -->
  <circle cx="49" cy="86" r="4.5" fill="#7B2D8E" stroke="none"/>
  <circle cx="75" cy="58" r="4.5" fill="#7B2D8E" stroke="none"/>
  <circle cx="101" cy="42" r="4.5" fill="#7B2D8E" stroke="none"/>
  <circle cx="127" cy="68" r="4.5" fill="#7B2D8E" stroke="none"/>
  <!-- Music note accent (small, top right) -->
  <ellipse cx="138" cy="30" rx="5" ry="4" fill="#7B2D8E" stroke="none" opacity="0.6"/>
  <line x1="143" y1="30" x2="143" y2="18" stroke-width="2.5" opacity="0.6"/>
  <path d="M143,18 Q148,16 150,20" stroke-width="2.5" opacity="0.6"/>
</svg>