<svg xmlns="http://www.w3.org/2000/svg" viewBox="0 0 200 200" fill="none"
  stroke="#7B2D8E" stroke-width="5" stroke-linecap="round" stroke-linejoin="round">
  <!-- Headphone band -->
  <path d="M52,115 Q52,55 100,50 Q148,55 148,115"/>
  <!-- Left ear cup -->
  <rect x="38" y="108" width="28" height="42" rx="12"/>
  <!-- Right ear cup -->
  <rect x="134" y="108" width="28" height="42" rx="12"/>
  <!-- Sound waves left -->
  <path d="M28,118 Q18,129 28,142" stroke-width="3.5" opacity="0.6"/>
  <path d="M18,112 Q4,129 18,148" stroke-width="3" opacity="0.35"/>
  <!-- Sound waves right -->
  <path d="M172,118 Q182,129 172,142" stroke-width="3.5" opacity="0.6"/>
  <path d="M182,112 Q196,129 182,148" stroke-width="3" opacity="0.35"/>
  <!-- Musical note -->
  <ellipse cx="96" cy="168" rx="8" ry="6" fill="#7B2D8E" stroke="none"/>
  <line x1="104" y1="168" x2="104" y2="148" stroke-width="3.5"/>
  <path d="M104,148 Q112,144 118,150" stroke-width="3.5" fill="none"/>
  <ellipse cx="118" cy="155" rx="6" ry="5" fill="#7B2D8E" stroke="none"/>
</svg>