<svg xmlns="http://www.w3.org/2000/svg" viewBox="0 0 200 200" fill="none"
  stroke="#7B2D8E" stroke-width="5" stroke-linecap="round" stroke-linejoin="round">
  <!-- Paint palette -->
  <path d="M40,120 Q30,85 65,70 Q100,55 140,65 Q175,75 170,110 Q165,145 130,155
    Q110,160 100,150 Q92,142 100,135 Q108,128 105,118 Q102,108 88,112
    Q74,116 60,140 Q50,155 40,120 Z"/>
  <!-- Paint dabs on palette -->
  <circle cx="75" cy="85" r="9" fill="#7B2D8E" stroke="none" opacity="0.8"/>
  <circle cx="105" cy="78" r="7" fill="#7B2D8E" stroke="none" opacity="0.5"/>
  <circle cx="132" cy="85" r="8" fill="#7B2D8E" stroke="none" opacity="0.65"/>
  <circle cx="148" cy="108" r="6" fill="#7B2D8E" stroke="none" opacity="0.4"/>
  <circle cx="125" cy="130" r="7" fill="#7B2D8E" stroke="none" opacity="0.55"/>
  <!-- Brush -->
  <line x1="145" y1="55" x2="175" y2="25" stroke-width="4"/>
  <line x1="175" y1="25" x2="185" y2="18" stroke-width="7" opacity="0.7"/>
  <!-- Brush tip -->
  <path d="M185,18 L192,12" stroke-width="3" opacity="0.5"/>
</svg>